#!OML:ASF F:\VICON\USERDATA\INSTALL\rory3\rory3.ASF
:FULLY-SPECIFIED
:DEGREES
34
root 0.9669023501014007 18.021383799043488 -3.6100059306604777 -4.421987266604667 -3.4646969390389666 0.29090640197845286
lfemur -12.685240370913654 -3.6828085708896428 -24.512191341124836
ltibia 32.371319364020046
lfoot -9.759611602974005 0.06903058945560803
ltoes -4.346006336690525
rfemur -11.544809928023227 2.4860472910530813 22.594273299041664
rtibia 67.02409298176755
rfoot 5.376792702650954 -4.411663563061232
rtoes 5.368562273656635
lowerback 10.590958436954164 1.0596901659460376 -0.6911840263878999
upperback 0.44105838680736964 1.6351502944065945 0.1271954333812757
thorax -5.430461231454024 0.7341396256071073 0.35449565199076116
lowerneck -15.900417834782251 -2.8684889886116567 -1.7041389478656452
upperneck 23.235726596214846 -3.823088311838144 0.028874257018670288
head 10.091481165621687 -1.7845121104654986 -0.18881420194833243
lclavicle -1.3860206060357557e-15 -1.842390777632695e-15
lhumerus -32.16663736542672 6.4737051527800205 79.94051253012421
lradius 24.72988506363887
lwrist 3.526717525450654
lhand -26.876755406542394 23.602448140911566
lfingers 7.125019999999999
lthumb -0.3841690619583896 53.48889650520027
rclavicle -1.388024466719284e-15 -1.8442528033350576e-15
rhumerus -27.56473740213955 -20.385068902965447 -80.26623723563375
rradius 28.630211088655706
rwrist 5.498179100340856
rhand -18.45554312080924 22.319979996050712
rfingers 7.125019999999999
rthumb 7.827690514783285 -7.5552629079162275
35
root 0.9532723621726129 18.01111869528437 -3.631937386280512 -4.511211697346306 -2.945681005552462 0.5601148894399182
lfemur -9.667383674622533 -3.6728014711364434 -25.3025089890209
ltibia 31.334819126279164
lfoot -10.761184397714148 1.382887576150881
ltoes -4.538222896346473
rfemur -16.431701443704185 1.6342444348946379 22.03701162381092
rtibia 63.44478404252604
rfoot 1.6249114274167802 -5.533811008992465
rtoes 5.358790040308476
lowerback 10.842937073545926 0.6443249379362479 -1.1335351605370387
upperback 0.5091995777875872 0.9440512368645368 0.25742082857119697
thorax -5.442127571016005 0.5077337715227358 0.8434690214521343
lowerneck -15.968423097147104 -2.799371392366756 -1.8650016396157534
upperneck 23.30149732378059 -3.6200699468850788 0.06418873797860941
head 10.097881613554724 -1.713686699296336 -0.14706299405870782
lclavicle -1.3860211441130344e-15 -1.842391277624401e-15
lhumerus -30.33256981724785 4.525251683257494 80.5491393249713
lradius 25.52371135915172
lwrist 3.915290532283103
lhand -27.145393543469602 23.495111686294212
lfingers 7.125019999999999
lthumb -0.5344533772852349 53.48764430465335
rclavicle -1.388024074717559e-15 -1.844252439079552e-15
rhumerus -28.238377505325026 -21.472578063977984 -79.97496640243395
rradius 28.7414948057738
rwrist 6.098300899941634
rhand -18.23505091723106 21.963845590089115
rfingers 7.125019999999999
rthumb 7.945514177601553 -8.025625189761906
36
root 0.9343211872205861 17.995364587830476 -3.1765747575034826 -4.458024201512963 -2.269158809103325 0.7904749755829252
lfemur -6.975336122817742 -3.8092580357773174 -25.89610138830934
ltibia 30.762334289272484
lfoot -11.990165242779222 2.203914480769897
ltoes -4.439843362401821
rfemur -20.646463589085013 0.7973675511121954 21.73306628226175
rtibia 57.75453510882953
rfoot -2.159151343658234 -5.831645694553415
rtoes 5.345871719804765
lowerback 11.030411555150048 0.2377642366131413 -1.4826548409772986
upperback 0.5601325828586327 0.2430081727946572 0.4958215590202142
thorax -5.497779499202278 0.2787262342095937 1.196955741912463
lowerneck -15.97129931952391 -2.7418756022748663 -1.942877093043057
upperneck 23.36203094096261 -3.503064718233737 0.07286233262609541
head 10.053208451085599 -1.6803888792926178 -0.11778209402890424
lclavicle -1.386020429622232e-15 -1.8423906137058715e-15
lhumerus -28.585257575110557 2.310692457209846 81.07051404962023
lradius 26.63081417147903
lwrist 4.571426579683029
lhand -27.08844501375743 24.03266700517204
lfingers 7.125019999999999
lthumb -0.47226836429388014 53.94573303629514
rclavicle -1.3880240423873233e-15 -1.8442524090376776e-15
rhumerus -29.128882079303654 -22.084676164153745 -79.46106728575006
rradius 28.901875818939963
rwrist 6.008451820520236
rhand -18.09335855558669 22.392421893974134
rfingers 7.125019999999999
rthumb 8.208410726196346 -7.435614008477727
37
root 0.9081941057232576 17.980895043221125 -2.7623552034956287 -4.227608596951508 -1.549390321352468 1.0246048582029403
lfemur -4.73761110229366 -3.9370773597582196 -26.589454142472484
ltibia 30.098021027165817
lfoot -13.03821076311467 2.5736696957390652
ltoes -4.385931915432409
rfemur -24.16826960302794 0.3348068396909678 21.485816865053536
rtibia 50.51695363325017
rfoot -5.410116668629056 -5.929323525317641
rtoes 5.268773893227254
lowerback 11.083367561959383 -0.12905087072522814 -1.7966650579032724
upperback 0.5988491724226378 -0.280183179097678 0.7668183947269951
thorax -5.42717931729429 0.03125269156423416 1.6845218539971507
lowerneck -15.92058238262783 -2.756121991190032 -2.0274894921578546
upperneck 23.276939566351533 -3.528446035807731 0.14802678749918208
head 9.970759405395807 -1.68949543362808 -0.10433997849345428
lclavicle -1.3860202903023228e-15 -1.8423904842471453e-15
lhumerus -26.80884724793927 0.487794850059053 81.33772008458115
lradius 28.02776946114948
lwrist 5.274949066918813
lhand -27.171937486728954 23.955917086733894
lfingers 7.125019999999999
lthumb -0.4777021152364164 54.04463931805541
rclavicle -1.388023650656135e-15 -1.8442520450335597e-15
rhumerus -29.95881428473821 -22.456514490340794 -79.0718645179692
rradius 28.80262112097016
rwrist 5.7884638425231145
rhand -18.341129223440152 22.448996366771603
rfingers 7.125019999999999
rthumb 8.043380504021124 -7.2526023905127674
